{
	"asset":{
		"generator":"Khronos glTF Blender I/O v3.6.27",
		"version":"2.0"
	},
	"extensionsUsed":[
		"KHR_materials_specular",
		"KHR_materials_ior"
	],
	"scene":0,
	"scenes":[
		{
			"name":"Scene",
			"nodes":[
				0,
				5
			]
		}
	],
	"nodes":[
		{
			"mesh":0,
			"name":"tent_2",
			"rotation":[
				0.7071069478988647,
				0,
				0,
				0.7071065902709961
			],
			"translation":[
				0,
				-0.038037776947021484,
				0
			]
		},
		{
			"mesh":1,
			"name":"Cube",
			"rotation":[
				0,
				0,
				-0.7071068286895752,
				0.7071068286895752
			],
			"scale":[
				0.18701033294200897,
				0.9591302871704102,
				1.3467954397201538
			],
			"translation":[
				-0.08276538550853729,
				1.5520367622375488,
				0.016763003543019295
			]
		},
		{
			"mesh":2,
			"name":"Cube.001",
			"rotation":[
				0,
				0,
				1,
				1.6292068494294654e-07
			],
			"scale":[
				0.18590913712978363,
				0.9534825086593628,
				1.3388649225234985
			],
			"translation":[
				-0.8512885570526123,
				0.8582905530929565,
				-0.22993063926696777
			]
		},
		{
			"mesh":3,
			"name":"Cube.002",
			"rotation":[
				0.7071068286895752,
				0,
				0.7071068286895752,
				1.9949604279645428e-07
			],
			"scale":[
				0.18590912222862244,
				0.953482449054718,
				0.9688915014266968
			],
			"translation":[
				0.19937317073345184,
				0.8547367453575134,
				1.1007366180419922
			]
		},
		{
			"mesh":4,
			"name":"Cube.004",
			"rotation":[
				0.7071068286895752,
				0,
				0.7071068286895752,
				1.9949604279645428e-07
			],
			"scale":[
				0.18590912222862244,
				0.953482449054718,
				0.9688915014266968
			],
			"translation":[
				0.4189923405647278,
				0.8776782751083374,
				-1.39063560962677
			]
		},
		{
			"children":[
				1,
				2,
				3,
				4
			],
			"name":"collision_volumes"
		}
	],
	"materials":[
		{
			"doubleSided":true,
			"extensions":{
				"KHR_materials_specular":{
					"specularColorFactor":[
						2.0000000474157864,
						2.0000000474157864,
						2.0000000474157864
					]
				},
				"KHR_materials_ior":{
					"ior":1.4500000476837158
				}
			},
			"name":"orc_house_mat.001",
			"pbrMetallicRoughness":{
				"baseColorTexture":{
					"index":0
				},
				"metallicFactor":0,
				"roughnessFactor":0.5527864098548889
			}
		},
		{
			"doubleSided":true,
			"name":"Material.013",
			"pbrMetallicRoughness":{
				"metallicFactor":0,
				"roughnessFactor":0.5
			}
		},
		{
			"doubleSided":true,
			"name":"Material.015",
			"pbrMetallicRoughness":{
				"metallicFactor":0,
				"roughnessFactor":0.5
			}
		},
		{
			"doubleSided":true,
			"name":"Material.016",
			"pbrMetallicRoughness":{
				"metallicFactor":0,
				"roughnessFactor":0.5
			}
		},
		{
			"doubleSided":true,
			"name":"Material.018",
			"pbrMetallicRoughness":{
				"metallicFactor":0,
				"roughnessFactor":0.5
			}
		}
	],
	"meshes":[
		{
			"name":"Mesh",
			"primitives":[
				{
					"attributes":{
						"POSITION":0,
						"NORMAL":1,
						"TEXCOORD_0":2
					},
					"indices":3,
					"material":0
				}
			]
		},
		{
			"name":"Cube.012",
			"primitives":[
				{
					"attributes":{
						"POSITION":4,
						"NORMAL":5,
						"TEXCOORD_0":6
					},
					"indices":7,
					"material":1
				}
			]
		},
		{
			"name":"Cube.014",
			"primitives":[
				{
					"attributes":{
						"POSITION":8,
						"NORMAL":9,
						"TEXCOORD_0":10
					},
					"indices":7,
					"material":2
				}
			]
		},
		{
			"name":"Cube.015",
			"primitives":[
				{
					"attributes":{
						"POSITION":11,
						"NORMAL":12,
						"TEXCOORD_0":13
					},
					"indices":7,
					"material":3
				}
			]
		},
		{
			"name":"Cube.017",
			"primitives":[
				{
					"attributes":{
						"POSITION":14,
						"NORMAL":15,
						"TEXCOORD_0":16
					},
					"indices":7,
					"material":4
				}
			]
		}
	],
	"textures":[
		{
			"sampler":0,
			"source":0
		}
	],
	"images":[
		{
			"bufferView":4,
			"mimeType":"image/png",
			"name":"Texture_MAp"
		}
	],
	"accessors":[
		{
			"bufferView":0,
			"componentType":5126,
			"count":2883,
			"max":[
				1.1017606258392334,
				1.7559553384780884,
				0.06093619018793106
			],
			"min":[
				-1.1522321701049805,
				-1.7545089721679688,
				-1.8604748249053955
			],
			"type":"VEC3"
		},
		{
			"bufferView":1,
			"componentType":5126,
			"count":2883,
			"type":"VEC3"
		},
		{
			"bufferView":2,
			"componentType":5126,
			"count":2883,
			"type":"VEC2"
		},
		{
			"bufferView":3,
			"componentType":5123,
			"count":3333,
			"type":"SCALAR"
		},
		{
			"bufferView":5,
			"componentType":5126,
			"count":24,
			"max":[
				1,
				1,
				1
			],
			"min":[
				-1,
				-1,
				-1
			],
			"type":"VEC3"
		},
		{
			"bufferView":6,
			"componentType":5126,
			"count":24,
			"type":"VEC3"
		},
		{
			"bufferView":7,
			"componentType":5126,
			"count":24,
			"type":"VEC2"
		},
		{
			"bufferView":8,
			"componentType":5123,
			"count":36,
			"type":"SCALAR"
		},
		{
			"bufferView":9,
			"componentType":5126,
			"count":24,
			"max":[
				1,
				1,
				1
			],
			"min":[
				-1,
				-1,
				-1
			],
			"type":"VEC3"
		},
		{
			"bufferView":10,
			"componentType":5126,
			"count":24,
			"type":"VEC3"
		},
		{
			"bufferView":11,
			"componentType":5126,
			"count":24,
			"type":"VEC2"
		},
		{
			"bufferView":12,
			"componentType":5126,
			"count":24,
			"max":[
				1,
				1,
				1
			],
			"min":[
				-1,
				-1,
				-1
			],
			"type":"VEC3"
		},
		{
			"bufferView":13,
			"componentType":5126,
			"count":24,
			"type":"VEC3"
		},
		{
			"bufferView":14,
			"componentType":5126,
			"count":24,
			"type":"VEC2"
		},
		{
			"bufferView":15,
			"componentType":5126,
			"count":24,
			"max":[
				1,
				1,
				1
			],
			"min":[
				-1,
				-1,
				-1
			],
			"type":"VEC3"
		},
		{
			"bufferView":16,
			"componentType":5126,
			"count":24,
			"type":"VEC3"
		},
		{
			"bufferView":17,
			"componentType":5126,
			"count":24,
			"type":"VEC2"
		}
	],
	"bufferViews":[
		{
			"buffer":0,
			"byteLength":34596,
			"byteOffset":0,
			"target":34962
		},
		{
			"buffer":0,
			"byteLength":34596,
			"byteOffset":34596,
			"target":34962
		},
		{
			"buffer":0,
			"byteLength":23064,
			"byteOffset":69192,
			"target":34962
		},
		{
			"buffer":0,
			"byteLength":6666,
			"byteOffset":92256,
			"target":34963
		},
		{
			"buffer":0,
			"byteLength":4279,
			"byteOffset":98924
		},
		{
			"buffer":0,
			"byteLength":288,
			"byteOffset":103204,
			"target":34962
		},
		{
			"buffer":0,
			"byteLength":288,
			"byteOffset":103492,
			"target":34962
		},
		{
			"buffer":0,
			"byteLength":192,
			"byteOffset":103780,
			"target":34962
		},
		{
			"buffer":0,
			"byteLength":72,
			"byteOffset":103972,
			"target":34963
		},
		{
			"buffer":0,
			"byteLength":288,
			"byteOffset":104044,
			"target":34962
		},
		{
			"buffer":0,
			"byteLength":288,
			"byteOffset":104332,
			"target":34962
		},
		{
			"buffer":0,
			"byteLength":192,
			"byteOffset":104620,
			"target":34962
		},
		{
			"buffer":0,
			"byteLength":288,
			"byteOffset":104812,
			"target":34962
		},
		{
			"buffer":0,
			"byteLength":288,
			"byteOffset":105100,
			"target":34962
		},
		{
			"buffer":0,
			"byteLength":192,
			"byteOffset":105388,
			"target":34962
		},
		{
			"buffer":0,
			"byteLength":288,
			"byteOffset":105580,
			"target":34962
		},
		{
			"buffer":0,
			"byteLength":288,
			"byteOffset":105868,
			"target":34962
		},
		{
			"buffer":0,
			"byteLength":192,
			"byteOffset":106156,
			"target":34962
		}
	],
	"samplers":[
		{
			"magFilter":9729,
			"minFilter":9987
		}
	],
	"buffers":[
		{
			"byteLength":106348,
			"uri":"data:application/octet-stream;base64,"
		}
	]
}
